<?xml version="1.0" encoding="UTF-8"?>
<!-- Generated by Pixelmator Pro 2.4.2 -->
<svg width="128" height="128" viewBox="0 0 128 128" xmlns="http://www.w3.org/2000/svg" xmlns:xlink="http://www.w3.org/1999/xlink">
    <g id="Layer-1">
        <g id="Group">
            <path id="Path" fill="#a52b00" stroke="none" d="M 63.716694 59.462509 C 50.784637 59.462509 39.035095 61.017281 30.336533 63.550934 L 30.336533 85.19371 C 39.035095 87.727463 50.784637 89.282135 63.716694 89.282135 C 78.517761 89.282135 91.768639 87.245651 100.669334 84.035629 L 100.669334 64.709335 C 91.768639 61.499199 78.517761 59.462509 63.716694 59.462509"/>
        </g>
        <g id="g1">
            <path id="path1" fill="#a52b00" stroke="none" d="M 114 77.047684 L 112.484154 73.907303 C 112.491951 73.788055 112.498138 73.668694 112.498138 73.548904 C 112.498138 69.988907 108.796158 66.70784 102.567787 64.080963 L 102.567787 83.017067 C 105.473923 81.791252 107.831573 80.423248 109.517761 78.950401 C 109.021553 80.945816 107.324265 84.982719 105.971092 87.821655 C 103.747093 91.882027 102.941757 95.416641 103.045013 95.591675 C 103.110825 95.701866 103.869545 94.531418 104.988373 92.634773 C 107.59211 88.924805 112.525871 81.842026 113.512009 80.037865 C 114.629013 77.992645 114 77.047684 114 77.047684"/>
        </g>
        <g id="g2">
            <path id="path2" fill="#a52b00" stroke="none" d="M 15.90016 73.756485 C 15.90016 74.442131 16.03808 75.117546 16.304214 75.779846 L 15.396374 77.395844 C 15.396374 77.395844 14.66912 78.339417 15.94976 80.330025 C 17.079361 82.085228 22.737494 88.955841 25.723839 92.553818 C 27.006613 94.398399 27.876266 95.534615 27.952425 95.42485 C 28.072321 95.250671 27.154987 91.787521 24.607466 87.836479 C 23.418774 85.714348 21.999041 82.902931 21.146988 80.826241 C 23.525972 82.331947 26.638506 83.697708 30.336533 84.873169 L 30.336533 62.640106 C 21.425175 65.471893 15.90016 69.406296 15.90016 73.756485"/>
        </g>
        <g id="g3">
            <linearGradient id="linearGradient1" x1="66.367608" y1="106.268714" x2="59.347906" y2="26.0333" gradientUnits="userSpaceOnUse">
                <stop offset="1e-05" stop-color="#f74c00" stop-opacity="1"/>
                <stop offset="0.33" stop-color="#f74c00" stop-opacity="1"/>
                <stop offset="1" stop-color="#f49600" stop-opacity="1"/>
            </linearGradient>
            <path id="path3" fill="url(#linearGradient1)" stroke="none" d="M 62.086895 26.521317 L 59.124146 31.469795 C 58.642735 31.511917 58.16132 31.554031 57.679909 31.596153 L 53.829666 27.324577 C 53.466606 26.871246 52.8839 26.679672 52.329269 26.809052 C 51.774643 26.938423 51.328327 27.381721 51.129738 27.884193 L 49.185978 33.39032 C 48.711586 33.512672 48.237194 33.635025 47.850056 33.830597 L 43.260632 30.351341 C 42.831375 30.065498 42.175453 29.961182 41.70808 30.163773 C 41.167492 30.453621 40.801414 30.889893 40.690083 31.465576 L 39.74424 37.288643 C 39.357101 37.484222 38.976986 37.760025 38.509613 37.962608 L 33.449799 35.575554 C 32.940308 35.29673 32.298424 35.35289 31.845091 35.715942 C 31.384737 35.998779 31.112932 36.588501 31.081837 37.157166 L 31.273331 43.042435 C 30.97345 43.311218 30.600351 43.667252 30.220234 43.943062 L 24.770264 42.641182 C 24.187557 42.449615 23.639948 42.659225 23.193632 43.102516 C 22.820536 43.458565 22.635988 44.121506 22.76536 44.676125 L 24.073132 50.382881 C 23.78027 50.731911 23.487408 51.080925 23.201563 51.510185 L 17.521906 51.279442 C 16.953239 51.248337 16.412647 51.538185 16.133829 52.047676 C 15.855005 52.557175 15.750689 53.213089 16.040535 53.753685 L 18.363289 59.048233 C 18.077446 59.477493 17.871836 59.899727 17.666231 60.32196 L 12.172106 61.287735 C 11.530221 61.343895 11.083909 61.787186 10.885319 62.289665 C 10.693754 62.872368 10.749911 63.514252 11.032733 63.974602 L 14.356431 68.696487 C 14.283216 68.783752 14.290236 68.863983 14.297255 68.944214 L 4.973801 78.815063 C 4.973801 78.815063 3.613799 79.904243 5.624664 82.558044 C 7.439967 84.824722 16.808344 93.949585 21.757807 98.771782 C 23.827852 101.177864 25.252012 102.670258 25.405466 102.575981 C 25.625109 102.314217 24.429651 97.891235 20.341717 92.751114 C 17.185513 88.095421 13.08256 80.935379 13.982205 80.129013 C 13.982205 80.129013 15.073424 78.73996 17.330053 77.734032 C 17.330053 77.734032 17.330053 77.734032 17.330053 77.734032 C 17.2428 77.660812 17.2428 77.660812 17.330053 77.734032 C 17.330053 77.734032 63.750969 99.140335 106.779411 78.07402 C 111.711891 77.157387 114.692589 79.80719 114.692589 79.80719 C 115.718605 80.445068 113.046677 87.793594 110.886292 92.671875 C 107.892448 98.189026 107.462143 102.511703 107.716881 102.651115 C 107.884377 102.717308 108.954529 101.08754 110.502106 98.445808 C 114.326378 93.179405 121.448387 83.096909 122.769287 80.636711 C 124.302811 77.834503 122.774338 76.998032 122.774338 76.998032 L 112.838264 69.701523 C 112.729958 69.387604 112.621643 69.073685 112.586548 68.672508 L 115.811058 63.943672 C 116.177132 63.507393 116.20121 62.85849 115.9916 62.310883 C 115.78199 61.763275 115.345718 61.397202 114.770027 61.285866 L 109.187668 60.318962 C 108.992104 59.931831 108.789513 59.464455 108.593941 59.077324 L 110.872681 53.703583 C 111.151512 53.194092 111.095352 52.552208 110.725273 52.018639 C 110.442451 51.558289 109.932953 51.279457 109.3713 51.328598 L 103.726753 51.499039 C 103.450943 51.118919 103.094902 50.745819 102.819099 50.3657 L 104.099915 44.675026 C 104.211258 44.099342 104.07486 43.46447 103.718819 43.091377 C 103.275528 42.645065 102.692818 42.453499 102.138191 42.582863 L 96.679161 43.949821 C 96.330147 43.656952 95.981117 43.364098 95.625076 42.990997 L 95.761551 37.157883 C 95.792641 36.589218 95.5028 36.04863 95.066521 35.682549 C 94.550011 35.323486 93.981346 35.292397 93.440758 35.582237 L 88.393929 37.964172 C 87.971695 37.75856 87.542435 37.472717 87.120193 37.267113 L 86.2136 31.525261 C 86.157448 30.883369 85.714149 30.437065 85.211678 30.238472 C 84.702187 29.959648 84.060303 30.015808 83.606972 30.378868 L 79.052574 33.768753 C 78.63736 33.643394 78.222145 33.518013 77.726692 33.399658 L 75.791077 27.909538 C 75.581467 27.361931 75.138168 26.915619 74.562477 26.804283 C 73.986794 26.692947 73.439186 26.902557 72.992874 27.345856 L 69.164597 31.642418 C 68.756401 31.597282 68.260948 31.478928 67.772514 31.440804 L 64.83596 26.523354 C 64.546112 25.982758 64.036621 25.703941 63.467957 25.672844 C 62.899284 25.641739 62.365715 26.011826 62.086895 26.521317 Z M 17.330053 77.734032 C 17.330053 77.734032 17.330053 77.734032 17.330053 77.734032 C 17.330053 77.734032 17.330053 77.734032 17.330053 77.734032 Z"/>
        </g>
        <g id="g4">
            <path id="path4" fill="#000000" stroke="none" d="M 48.034988 90.768959 C 47.857494 90.617493 47.764481 90.527679 47.764481 90.527679 L 62.96896 89.282135 C 50.566505 72.920425 40.630402 85.954346 39.5728 87.411621 L 39.5728 90.768959 L 48.034988 90.768959 Z"/>
        </g>
        <g id="g5">
            <path id="path5" fill="#000000" stroke="none" d="M 79.692802 90.592743 C 79.870186 90.441284 79.96331 90.351257 79.96331 90.351257 L 65.351677 89.282135 C 77.760002 72.248856 87.09771 85.777924 88.155205 87.235199 L 88.155205 90.592743 L 79.692802 90.592743 Z"/>
        </g>
        <g id="g6">
            <linearGradient id="linearGradient2" x1="86.342898" y1="102.8512" x2="86.342897" y2="74.348693" gradientUnits="userSpaceOnUse">
                <stop offset="1e-05" stop-color="#cc3a00" stop-opacity="1"/>
                <stop offset="0.15" stop-color="#cc3a00" stop-opacity="1"/>
                <stop offset="0.74" stop-color="#f74c00" stop-opacity="1"/>
                <stop offset="1" stop-color="#f74c00" stop-opacity="1"/>
            </linearGradient>
            <path id="path6" fill="url(#linearGradient2)" stroke="none" d="M 103.045403 74.348694 C 103.045403 74.348694 101.39225 80.961273 91.045845 87.915886 L 88.167091 88.599945 C 88.167091 88.599945 78.789764 71.498444 65.507599 90.766136 C 65.507599 90.766136 69.640465 88.371925 80.727936 91.307686 C 80.727936 91.307686 75.625992 99.117371 65.365089 98.860855 C 65.365089 98.860855 75.198448 110.689392 90.190765 93.616386 C 90.190765 93.616386 106.038162 87.488342 107.320778 74.348694 L 103.045403 74.348694 Z"/>
        </g>
        <g id="g7">
            <path id="path7" fill="#000000" stroke="none" d="M 72.25515 65.871681 C 72.25515 65.871681 76.893654 60.792747 81.532379 65.871681 C 81.532379 65.871681 85.177177 72.644165 81.532379 76.029968 C 81.532379 76.029968 75.568428 80.770668 72.25515 76.029968 C 72.25515 76.029968 68.279144 72.305069 72.25515 65.871681"/>
        </g>
        <g id="g8">
            <path id="path8" fill="#ffffff" stroke="none" d="M 77.625381 67.755844 C 77.625381 69.733551 76.459518 71.336853 75.021866 71.336853 C 73.58432 71.336853 72.418564 69.733551 72.418564 67.755844 C 72.418564 65.778137 73.58432 64.174614 75.021866 64.174614 C 76.459518 64.174614 77.625381 65.778137 77.625381 67.755844"/>
        </g>
        <g id="g9">
            <path id="path9" fill="#000000" stroke="none" d="M 51.551998 64.484802 C 51.551998 64.484802 59.508907 60.961815 61.680637 68.825172 C 61.680637 68.825172 63.955521 77.990616 55.146347 78.50795 C 55.146347 78.50795 43.91328 76.344421 51.551998 64.484802"/>
        </g>
        <g id="g10">
            <path id="path10" fill="#ffffff" stroke="none" d="M 55.548374 67.885651 C 55.548374 69.925018 54.346241 71.579201 52.863251 71.579201 C 51.380802 71.579201 50.178345 69.925018 50.178345 67.885651 C 50.178345 65.845764 51.380802 64.192108 52.863251 64.192108 C 54.346241 64.192108 55.548374 65.845764 55.548374 67.885651"/>
        </g>
        <g id="g11">
            <linearGradient id="linearGradient3" x1="42.897197" y1="104.041387" x2="42.897195" y2="78.545813" gradientUnits="userSpaceOnUse">
                <stop offset="1e-05" stop-color="#cc3a00" stop-opacity="1"/>
                <stop offset="0.15" stop-color="#cc3a00" stop-opacity="1"/>
                <stop offset="0.74" stop-color="#f74c00" stop-opacity="1"/>
                <stop offset="1" stop-color="#f74c00" stop-opacity="1"/>
            </linearGradient>
            <path id="path11" fill="url(#linearGradient3)" stroke="none" d="M 39.608246 94.684509 C 54.140724 113.321777 61.024525 98.355873 61.024525 98.355873 C 52.86594 97.438034 47.078445 92.007477 47.078445 92.007477 C 56.868744 90.758194 62.528763 90.656204 62.528763 90.656204 C 49.424038 73.370209 38.792385 89.02449 38.792385 89.02449 C 36.140846 88.055664 33.412819 84.358803 31.398668 80.942398 L 23.265581 78.545815 C 32.622459 94.455048 39.608246 94.684509 39.608246 94.684509 Z"/>
        </g>
    </g>
</svg>
